<?xml version="1.0" standalone="no"?>
<!DOCTYPE svg PUBLIC "-//W3C//DTD SVG 20010904//EN"
 "http://www.w3.org/TR/2001/REC-SVG-20010904/DTD/svg10.dtd">
<svg version="1.0" xmlns="http://www.w3.org/2000/svg"
 width="600.000000pt" height="480.000000pt" viewBox="0 0 600.000000 480.000000"
 preserveAspectRatio="xMidYMid meet">
<metadata>
Created by potrace 1.15, written by Peter Selinger 2001-2017
</metadata>
<g transform="translate(0.000000,480.000000) scale(0.100000,-0.100000)"
fill="#000000" stroke="none">
<path d="M0 2400 l0 -2400 3000 0 3000 0 0 2400 0 2400 -3000 0 -3000 0 0
-2400z m2325 1108 l297 -473 -20 -35 c-10 -19 -23 -35 -28 -37 -7 -2 -630 975
-642 1008 -2 5 19 9 46 9 l50 0 297 -472z m158 81 l246 -390 -26 -40 c-14 -22
-27 -38 -28 -37 -7 7 -535 851 -535 854 0 2 22 4 49 4 l48 0 246 -391z m158
86 c104 -165 189 -304 189 -308 0 -4 -11 -24 -24 -43 l-24 -35 -209 333 c-116
183 -213 339 -217 346 -6 10 4 12 44 10 l52 -3 189 -300z m160 81 l138 -219
-22 -39 c-12 -21 -24 -38 -27 -38 -3 0 -72 107 -155 238 -82 130 -155 247
-163 260 l-15 23 53 -3 53 -3 138 -219z m577 215 c-1 -5 -291 -466 -643 -1025
l-640 -1016 -52 0 -52 0 311 493 c170 270 320 508 333 527 12 19 163 259 335
533 l313 497 49 0 c27 0 48 -4 46 -9z m210 0 c-1 -6 -291 -467 -643 -1025
l-640 -1016 -47 0 c-27 0 -48 3 -48 6 0 5 484 777 635 1014 23 36 178 282 345
548 l303 482 50 0 c27 0 47 -4 45 -9z m209 -3 c-2 -7 -166 -269 -364 -583
-197 -313 -484 -769 -637 -1012 l-278 -443 -50 0 c-27 0 -48 4 -46 9 2 4 291
466 643 1025 l640 1016 49 0 c34 0 47 -4 43 -12z m210 0 c-4 -11 -537 -863
-621 -993 -18 -27 -173 -274 -345 -547 l-313 -498 -50 0 c-27 0 -48 4 -46 8 2
5 291 466 643 1025 l640 1017 49 0 c34 0 47 -4 43 -12z m63 -2034 c0 -2 -22
-4 -49 -4 l-49 0 -263 418 c-144 229 -277 440 -295 467 l-32 51 25 42 25 42
319 -506 c175 -278 319 -508 319 -510z m-473 421 c138 -220 253 -406 257 -412
5 -10 -6 -13 -43 -13 l-49 0 -234 373 c-129 204 -238 378 -242 384 -4 7 3 30
16 52 17 31 26 37 34 28 6 -7 123 -192 261 -412z m-143 -110 l195 -310 -46 -3
c-29 -2 -51 2 -58 10 -7 7 -94 143 -194 301 l-181 288 26 41 26 41 18 -29 c10
-16 106 -168 214 -339z m-170 -65 l155 -245 -46 -3 c-29 -2 -51 2 -58 10 -15
15 -254 393 -261 412 -7 17 36 90 47 79 4 -4 78 -118 163 -253z m-1105 -641
c40 -14 61 -54 61 -119 0 -50 -1 -51 -27 -48 -26 3 -28 7 -31 53 -3 57 -19 75
-67 75 -47 0 -75 -25 -75 -67 0 -33 9 -45 94 -127 96 -92 116 -123 116 -177 0
-77 -52 -114 -150 -107 -85 6 -112 33 -114 115 -1 56 0 58 24 58 22 0 25 -5
28 -45 4 -60 24 -80 78 -80 53 0 74 20 74 68 0 33 -10 46 -95 130 -108 106
-127 146 -103 211 23 61 107 88 187 60z m697 -5 c19 -9 40 -26 47 -38 14 -24
17 -362 4 -409 -22 -79 -207 -93 -247 -18 -6 12 -10 100 -10 214 0 183 1 196
21 221 12 15 31 32 43 36 35 14 106 11 142 -6z m390 1 c42 -17 66 -68 62 -128
-3 -37 -6 -42 -30 -45 -28 -3 -28 -2 -28 52 0 45 -4 58 -22 70 -28 20 -78 21
-104 2 -17 -13 -19 -29 -22 -188 -3 -208 1 -222 70 -226 55 -4 78 15 78 64 0
31 2 34 31 34 l32 0 -6 -47 c-8 -69 -48 -103 -123 -103 -60 0 -107 19 -124 49
-14 27 -13 393 1 425 23 51 114 71 185 41z m-716 -20 c0 -24 -3 -25 -60 -25
l-60 0 0 -184 c0 -204 6 -236 44 -236 33 0 46 26 46 89 0 48 2 51 25 51 24 0
25 -2 25 -70 0 -62 -3 -74 -25 -95 -35 -36 -102 -35 -139 1 l-26 27 0 233 0
234 85 0 c84 0 85 0 85 -25z m972 -76 l3 -102 63 102 c57 91 66 101 93 101 16
0 29 -2 29 -5 0 -2 -29 -50 -65 -107 -36 -56 -65 -105 -65 -110 0 -5 30 -68
67 -141 37 -72 69 -135 71 -139 2 -5 -10 -8 -27 -8 -30 0 -34 6 -88 115 -71
142 -83 141 -83 -11 l0 -104 -30 0 -30 0 0 255 0 255 30 0 29 0 3 -101z m347
9 l43 -93 43 93 c38 81 47 92 69 92 14 0 26 -3 26 -6 0 -3 -23 -58 -52 -123
-28 -64 -51 -123 -50 -131 0 -8 24 -66 51 -127 28 -62 51 -115 51 -118 0 -3
-13 -5 -29 -5 -21 0 -32 6 -36 20 -4 11 -22 55 -42 97 l-35 76 -42 -94 c-39
-88 -44 -94 -74 -97 l-31 -3 59 131 59 131 -41 92 c-77 174 -72 157 -40 157
27 0 32 -7 71 -92z"/>
<path d="M2744 1486 c-17 -13 -19 -29 -22 -188 -3 -212 0 -222 75 -226 79 -5
83 5 83 215 0 160 -2 175 -20 193 -24 24 -87 27 -116 6z"/>
</g>
</svg>
